<svg xmlns:dc="http://purl.org/dc/elements/1.1/" xmlns:cc="http://creativecommons.org/ns#" xmlns:rdf="http://www.w3.org/1999/02/22-rdf-syntax-ns#" xmlns:svg="http://www.w3.org/2000/svg" xmlns="http://www.w3.org/2000/svg" xmlns:xlink="http://www.w3.org/1999/xlink" id="svg398379" viewBox="0 0 1024 768" height="768px" width="1024px" version="1.1">
  <metadata id="metadata398385">
    <rdf:rdf>
      <cc:work rdf:about="">
        <dc:format>image/svg+xml</dc:format>
        <dc:type rdf:resource="http://purl.org/dc/dcmitype/StillImage"></dc:type>
      </cc:work>
    </rdf:rdf>
  </metadata>
  <defs id="defs398383"></defs>
  <linearGradient spreadMethod="pad" y2="30%" x2="-10%" y1="120%" x1="30%" id="3d_gradient2-logo-b3e1943a-ffc0-4728-9759-d18a8051a7db">
    <stop id="stop398360" stop-opacity="1" stop-color="#ffffff" offset="0%"></stop>
    <stop id="stop398362" stop-opacity="1" stop-color="#000000" offset="100%"></stop>
  </linearGradient>
  <linearGradient gradientTransform="rotate(-30)" spreadMethod="pad" y2="30%" x2="-10%" y1="120%" x1="30%" id="3d_gradient3-logo-b3e1943a-ffc0-4728-9759-d18a8051a7db">
    <stop id="stop398365" stop-opacity="1" stop-color="#ffffff" offset="0%"></stop>
    <stop id="stop398367" stop-opacity="1" stop-color="#cccccc" offset="50%"></stop>
    <stop id="stop398369" stop-opacity="1" stop-color="#000000" offset="100%"></stop>
  </linearGradient>
  <g id="logo-group">
    <image xlink:href="" id="container" x="272" y="144" width="480" height="480" transform="translate(0 0)" style="display: none;"></image>
    <g id="logo-center" transform="translate(221.1592139 0)">
      <image xlink:href="" id="icon_container" x="0" y="0" style="display: none;"></image>
      <g id="slogan" style="font-style:normal;font-weight:400;font-size:32px;line-height:1;font-family:'Hammersmith One';font-variant-ligatures:none;text-align:center;text-anchor:middle" transform="translate(0 0)"></g>
      <g id="title" style="font-style:normal;font-weight:normal;font-size:72px;line-height:1;font-family:'Brandmark Sans 10';font-variant-ligatures:normal;text-align:center;text-anchor:middle" transform="translate(0 0)">
        <path id="path398388" style="font-style:normal;font-weight:normal;font-size:72px;line-height:1;font-family:'Brandmark Sans 10';font-variant-ligatures:normal;text-align:center;text-anchor:middle" d="m 408.57875,-4.248 -18.072,-44.208 c -0.504,-1.152 -1.656,-1.944 -2.88,-1.944 h -1.512 c -1.296,0 -2.376,0.792 -2.88,1.944 l -18.144,44.208 c -0.792,1.872 0.504,4.032 2.592,4.248 h 21.888 c 1.656,0 2.952,-1.368 2.952,-2.952 0,-1.656 -1.296,-3.024 -2.952,-3.024 h -17.064 l 13.464,-32.832 0.864,-2.16 0.864,2.16 15.192,36.864 c 0.432,1.152 1.584,1.944 2.88,1.944 2.16,0 3.672,-2.232 2.808,-4.248 z" stroke-width="0" stroke-linejoin="miter" stroke-miterlimit="2" fill="#26ab00" stroke="#26ab00" transform="translate(0 319.01823999999993) translate(176 28.32800000000001) scale(1.43) translate(-364.85571 50.4)"></path>
        <path id="path398390" style="font-style:normal;font-weight:normal;font-size:72px;line-height:1;font-family:'Brandmark Sans 10';font-variant-ligatures:normal;text-align:center;text-anchor:middle" d="m 448.57362,-50.4 c -1.656,0 -3.024,1.368 -3.024,2.952 v 14.112 c -3.456,-3.384 -8.06399,-5.472 -13.248,-5.472 -10.584,0 -19.224,8.856 -19.224,19.8 0,10.872 8.64,19.728 19.224,19.728 5.18401,0 9.792,-2.088 13.248,-5.472 v 1.8 c 0,1.584 1.368,2.952 3.024,2.952 1.656,0 2.952,-1.368 2.952,-2.952 v -44.496 c 0,-1.584 -1.296,-2.952 -2.952,-2.952 z m -29.52,31.392 c 0,-7.632 5.976,-13.824 13.248,-13.824 7.344,0 13.248,6.192 13.248,13.824 0,7.56 -5.904,13.752 -13.248,13.752 -7.272,0 -13.248,-6.192 -13.248,-13.752 z" stroke-width="0" stroke-linejoin="miter" stroke-miterlimit="2" fill="#20a819" stroke="#20a819" transform="translate(0 319.01823999999993) translate(244.95733130000002 28.32800000000001) scale(1.43) translate(-413.07762 50.4)"></path>
        <path id="path398392" style="font-style:normal;font-weight:normal;font-size:72px;line-height:1;font-family:'Brandmark Sans 10';font-variant-ligatures:normal;text-align:center;text-anchor:middle" d="m 491.435,-37.8 c -1.512,-0.648 -3.312,0 -3.96,1.512 l -11.448,26.64 -11.448,-26.64 c -0.72,-1.512 -2.448,-2.16 -3.96,-1.512 -1.512,0.648 -2.232,2.376 -1.584,3.888 l 14.256,32.976 c 0.432,1.08 1.512,1.8 2.736,1.8 1.152,0 2.232,-0.72 2.736,-1.8 l 14.184,-32.976 c 0.648,-1.512 0,-3.24 -1.512,-3.888 z" stroke-width="0" stroke-linejoin="miter" stroke-miterlimit="2" fill="#19a533" stroke="#19a533" transform="translate(0 319.01823999999993) translate(310.3353297 45.988198270000005) scale(1.43) translate(-458.7965 38.050211)"></path>
        <path id="path398394" style="font-style:normal;font-weight:normal;font-size:72px;line-height:1;font-family:'Brandmark Sans 10';font-variant-ligatures:normal;text-align:center;text-anchor:middle" d="m 536.1785,-21.672 c -1.224,-9.648 -9.288,-17.136 -19.08,-17.136 -10.584,0 -19.224,8.856 -19.224,19.8 0,10.872 8.64,19.728 19.224,19.728 5.976,0 11.304,-2.736 14.76,-7.128 1.584,-1.944 0.144,-4.824 -2.304,-4.824 -0.936,0 -1.8,0.432 -2.376,1.152 -2.376,2.952 -6.048,4.824 -10.08,4.824 -4.536,0 -8.496,-2.304 -10.944,-5.976 -1.008,-1.512 -1.728,-3.312 -2.088,-5.184 h 29.664 c 1.44,0 2.592,-1.152 2.592,-2.592 0,-0.936 -0.072,-1.8 -0.144,-2.664 z m -32.112,0 c 1.224,-6.336 6.552,-11.16 13.032,-11.16 6.48,0 11.88,4.824 13.032,11.16 z" stroke-width="0" stroke-linejoin="miter" stroke-miterlimit="2" fill="#13a24d" stroke="#13a24d" transform="translate(0 319.01823999999993) translate(366.2168697 44.904560000000004) scale(1.43) translate(-497.8745 38.808)"></path>
        <path id="path398396" style="font-style:normal;font-weight:normal;font-size:72px;line-height:1;font-family:'Brandmark Sans 10';font-variant-ligatures:normal;text-align:center;text-anchor:middle" d="m 560.59325,-38.808 c -9.288,0 -16.848,7.776 -16.848,17.28 v 18.576 c 0,1.584 1.368,2.952 2.952,2.952 1.656,0 3.024,-1.368 3.024,-2.952 v -18.576 c 0,-6.264 4.896,-11.304 10.872,-11.304 5.976,0 10.872,5.04 10.872,11.304 v 18.576 c 0,1.584 1.296,2.952 2.952,2.952 1.656,0 3.024,-1.368 3.024,-2.952 v -18.576 c 0,-9.504 -7.56,-17.28 -16.848,-17.28 z" stroke-width="0" stroke-linejoin="miter" stroke-miterlimit="2" fill="#0d9f66" stroke="#0d9f66" transform="translate(0 319.01823999999993) translate(431.8120422000001 44.904560000000004) scale(1.43) translate(-543.74525 38.808)"></path>
        <path id="path398398" style="font-style:normal;font-weight:normal;font-size:72px;line-height:1;font-family:'Brandmark Sans 10';font-variant-ligatures:normal;text-align:center;text-anchor:middle" d="m 609.97063,-5.976 h -16.63201 l 19.08001,-26.64 0.216,-0.36 c 0,-0.072 0.072,-0.072 0.072,-0.144 0.072,-0.144 0.072,-0.216 0.144,-0.288 0,-0.144 0.072,-0.216 0.072,-0.288 v -0.216 c 0,-0.144 0.072,-0.288 0.072,-0.36 v -0.072 c 0,-0.072 0,-0.144 -0.072,-0.216 v -0.288 c 0,-0.144 -0.072,-0.216 -0.072,-0.288 0,-0.144 -0.072,-0.216 -0.072,-0.288 -0.072,-0.072 -0.072,-0.216 -0.144,-0.288 l -0.144,-0.216 c -0.072,-0.072 -0.144,-0.216 -0.144,-0.288 l -0.21601,-0.216 -0.216,-0.216 c -0.072,0 -0.144,-0.072 -0.216,-0.144 -0.072,-0.072 -0.216,-0.144 -0.288,-0.144 -0.072,-0.072 -0.144,-0.144 -0.216,-0.144 l -0.288,-0.072 c -0.072,-0.072 -0.216,-0.072 -0.288,-0.072 -0.072,-0.072 -0.14399,-0.072 -0.216,-0.072 h -0.35999 -22.53601 c -1.58399,0 -2.952,1.296 -2.952,2.952 0,1.656 1.36801,2.952 2.952,2.952 h 16.70401 l -19.08001,26.64 c -0.648,0.936 -0.792,2.16 -0.216,3.096 0.50401,1.008 1.512,1.656 2.592,1.656 h 22.46401 c 1.65599,0 3.024,-1.368 3.024,-2.952 0,-1.656 -1.36801,-3.024 -3.024,-3.024 z" stroke-width="0" stroke-linejoin="miter" stroke-miterlimit="2" fill="#069c80" stroke="#069c80" transform="translate(0 319.01823999999993) translate(490.16824009999993 47.066720000000004) scale(1.43) translate(-584.55378 37.296)"></path>
        <path id="path398400" style="font-style:normal;font-weight:normal;font-size:72px;line-height:1;font-family:'Brandmark Sans 10';font-variant-ligatures:normal;text-align:center;text-anchor:middle" d="m 656.41625,-2.952 v -16.056 c 0,-10.944 -8.64,-19.8 -19.224,-19.8 -10.584,0 -19.224,8.856 -19.224,19.8 0,10.872 8.64,19.728 19.224,19.728 5.184,0 9.792,-2.088 13.248,-5.472 v 1.8 c 0,1.584 1.368,2.952 3.024,2.952 1.656,0 2.952,-1.368 2.952,-2.952 z m -32.472,-16.056 c 0,-7.632 5.976,-13.824 13.248,-13.824 7.344,0 13.248,6.192 13.248,13.824 0,7.56 -5.904,13.752 -13.248,13.752 -7.272,0 -13.248,-6.192 -13.248,-13.752 z" stroke-width="0" stroke-linejoin="miter" stroke-miterlimit="2" fill="#009999" stroke="#009999" transform="translate(0 319.01823999999993) translate(537.9509322 44.904560000000004) scale(1.43) translate(-617.96825 38.808)"></path>
      </g>
      
    </g>
  </g>
</svg>